<mxfile host="app.diagrams.net" modified="2024-02-26T17:30:58.219Z" agent="Mozilla/5.0 (Macintosh; Intel Mac OS X 10_15_7) AppleWebKit/537.36 (KHTML, like Gecko) Chrome/122.0.0.0 Safari/537.36" etag="sWPCIiJFK0p02u8cGwD0" version="23.1.2" type="github">
  <diagram name="Page-1" id="Bb5PjucaasYFHXv9t2hh">
    <mxGraphModel dx="2611" dy="669" grid="0" gridSize="10" guides="1" tooltips="1" connect="1" arrows="1" fold="1" page="1" pageScale="1" pageWidth="850" pageHeight="1100" math="0" shadow="0">
      <root>
        <mxCell id="0" />
        <mxCell id="1" parent="0" />
        <mxCell id="Q_MenP5QwrPpLCp4PIsN-20" style="edgeStyle=none;rounded=0;orthogonalLoop=1;jettySize=auto;html=1;strokeWidth=5;strokeColor=#006600;" parent="1" source="Q_MenP5QwrPpLCp4PIsN-1" target="Q_MenP5QwrPpLCp4PIsN-2" edge="1">
          <mxGeometry relative="1" as="geometry" />
        </mxCell>
        <mxCell id="Q_MenP5QwrPpLCp4PIsN-1" value="App" style="rounded=1;whiteSpace=wrap;html=1;" parent="1" vertex="1">
          <mxGeometry x="240" y="370" width="120" height="60" as="geometry" />
        </mxCell>
        <mxCell id="Q_MenP5QwrPpLCp4PIsN-2" value="RDS&lt;br&gt;(instance)" style="shape=cylinder3;whiteSpace=wrap;html=1;boundedLbl=1;backgroundOutline=1;size=15;" parent="1" vertex="1">
          <mxGeometry x="270" y="555" width="60" height="80" as="geometry" />
        </mxCell>
        <mxCell id="Q_MenP5QwrPpLCp4PIsN-21" style="edgeStyle=none;rounded=0;orthogonalLoop=1;jettySize=auto;html=1;entryX=0.5;entryY=0;entryDx=0;entryDy=0;strokeWidth=5;strokeColor=#006600;" parent="1" source="Q_MenP5QwrPpLCp4PIsN-3" target="Q_MenP5QwrPpLCp4PIsN-1" edge="1">
          <mxGeometry relative="1" as="geometry" />
        </mxCell>
        <mxCell id="Q_MenP5QwrPpLCp4PIsN-3" value="Customers" style="shape=umlActor;verticalLabelPosition=bottom;verticalAlign=top;html=1;outlineConnect=0;" parent="1" vertex="1">
          <mxGeometry x="285" y="220" width="30" height="60" as="geometry" />
        </mxCell>
        <mxCell id="Q_MenP5QwrPpLCp4PIsN-11" style="edgeStyle=entityRelationEdgeStyle;rounded=0;orthogonalLoop=1;jettySize=auto;html=1;entryX=0;entryY=0.5;entryDx=0;entryDy=0;dashed=1;" parent="1" source="Q_MenP5QwrPpLCp4PIsN-8" target="Q_MenP5QwrPpLCp4PIsN-1" edge="1">
          <mxGeometry relative="1" as="geometry" />
        </mxCell>
        <mxCell id="Q_MenP5QwrPpLCp4PIsN-8" value="Tools (wagon)" style="html=1;verticalLabelPosition=bottom;align=center;labelBackgroundColor=#ffffff;verticalAlign=top;strokeWidth=2;strokeColor=#0080F0;shadow=0;dashed=0;shape=mxgraph.ios7.icons.tools;pointerEvents=1" parent="1" vertex="1">
          <mxGeometry x="30" y="480" width="29.7" height="29.7" as="geometry" />
        </mxCell>
        <mxCell id="Q_MenP5QwrPpLCp4PIsN-12" style="edgeStyle=entityRelationEdgeStyle;rounded=0;orthogonalLoop=1;jettySize=auto;html=1;entryX=0;entryY=0;entryDx=0;entryDy=52.5;entryPerimeter=0;dashed=1;" parent="1" source="Q_MenP5QwrPpLCp4PIsN-8" target="Q_MenP5QwrPpLCp4PIsN-2" edge="1">
          <mxGeometry relative="1" as="geometry" />
        </mxCell>
        <mxCell id="Q_MenP5QwrPpLCp4PIsN-14" style="edgeStyle=entityRelationEdgeStyle;rounded=0;orthogonalLoop=1;jettySize=auto;html=1;dashed=1;" parent="1" source="Q_MenP5QwrPpLCp4PIsN-13" target="Q_MenP5QwrPpLCp4PIsN-8" edge="1">
          <mxGeometry relative="1" as="geometry" />
        </mxCell>
        <mxCell id="Q_MenP5QwrPpLCp4PIsN-13" value="Service Owner" style="shape=umlActor;verticalLabelPosition=bottom;verticalAlign=top;html=1;outlineConnect=0;" parent="1" vertex="1">
          <mxGeometry x="-130" y="465" width="30" height="60" as="geometry" />
        </mxCell>
        <mxCell id="Q_MenP5QwrPpLCp4PIsN-17" style="edgeStyle=none;rounded=0;orthogonalLoop=1;jettySize=auto;html=1;dashed=1;" parent="1" source="Q_MenP5QwrPpLCp4PIsN-15" target="Q_MenP5QwrPpLCp4PIsN-8" edge="1">
          <mxGeometry relative="1" as="geometry" />
        </mxCell>
        <mxCell id="Q_MenP5QwrPpLCp4PIsN-15" value="Tools Developers" style="shape=umlActor;verticalLabelPosition=bottom;verticalAlign=top;html=1;outlineConnect=0;fillColor=#d5e8d4;strokeColor=#82b366;" parent="1" vertex="1">
          <mxGeometry x="29.39" y="600" width="30" height="60" as="geometry" />
        </mxCell>
        <mxCell id="Q_MenP5QwrPpLCp4PIsN-18" value="" style="sketch=0;outlineConnect=0;fontColor=#232F3E;gradientColor=none;fillColor=#7AA116;strokeColor=none;dashed=0;verticalLabelPosition=bottom;verticalAlign=top;align=center;html=1;fontSize=12;fontStyle=0;aspect=fixed;pointerEvents=1;shape=mxgraph.aws4.bucket;" parent="1" vertex="1">
          <mxGeometry x="20.35" y="370" width="48.08" height="50" as="geometry" />
        </mxCell>
        <mxCell id="Q_MenP5QwrPpLCp4PIsN-19" style="edgeStyle=none;rounded=0;orthogonalLoop=1;jettySize=auto;html=1;entryX=0.5;entryY=0.337;entryDx=0;entryDy=0;entryPerimeter=0;startArrow=classic;startFill=1;dashed=1;" parent="1" source="Q_MenP5QwrPpLCp4PIsN-18" target="Q_MenP5QwrPpLCp4PIsN-8" edge="1">
          <mxGeometry relative="1" as="geometry" />
        </mxCell>
        <mxCell id="Q_MenP5QwrPpLCp4PIsN-22" value="1" style="ellipse;whiteSpace=wrap;html=1;aspect=fixed;strokeWidth=2;fontFamily=Tahoma;spacingBottom=4;spacingRight=2;strokeColor=#d3d3d3;" parent="1" vertex="1">
          <mxGeometry x="-50" y="465" width="20" height="20" as="geometry" />
        </mxCell>
        <mxCell id="Q_MenP5QwrPpLCp4PIsN-23" value="2" style="ellipse;whiteSpace=wrap;html=1;aspect=fixed;strokeWidth=2;fontFamily=Tahoma;spacingBottom=4;spacingRight=2;strokeColor=#d3d3d3;" parent="1" vertex="1">
          <mxGeometry x="180" y="520" width="20" height="20" as="geometry" />
        </mxCell>
        <mxCell id="Q_MenP5QwrPpLCp4PIsN-24" value="3" style="ellipse;whiteSpace=wrap;html=1;aspect=fixed;strokeWidth=2;fontFamily=Tahoma;spacingBottom=4;spacingRight=2;strokeColor=#d3d3d3;" parent="1" vertex="1">
          <mxGeometry x="50" y="445" width="20" height="20" as="geometry" />
        </mxCell>
        <mxCell id="Q_MenP5QwrPpLCp4PIsN-25" value="4" style="ellipse;whiteSpace=wrap;html=1;aspect=fixed;strokeWidth=2;fontFamily=Tahoma;spacingBottom=4;spacingRight=2;strokeColor=#d3d3d3;" parent="1" vertex="1">
          <mxGeometry x="140" y="410" width="20" height="20" as="geometry" />
        </mxCell>
        <mxCell id="Q_MenP5QwrPpLCp4PIsN-26" value="&lt;ol&gt;&lt;li&gt;? cost not efficiency ...&lt;/li&gt;&lt;li&gt;? poor db setup ...&amp;nbsp;&lt;/li&gt;&lt;li&gt;? hardly maintainable ...&lt;/li&gt;&lt;li&gt;? lack of the field knowledge on db maintenance by engineer ...&lt;/li&gt;&lt;li&gt;? ...&lt;/li&gt;&lt;/ol&gt;" style="shape=callout;whiteSpace=wrap;html=1;perimeter=calloutPerimeter;align=left;dashed=1;strokeWidth=0;fillColor=#f5f5f5;strokeColor=#666666;fontColor=#333333;" parent="1" vertex="1">
          <mxGeometry x="470" y="320" width="340" height="160" as="geometry" />
        </mxCell>
        <mxCell id="Q_MenP5QwrPpLCp4PIsN-27" style="edgeStyle=none;rounded=0;orthogonalLoop=1;jettySize=auto;html=1;entryX=0.963;entryY=0.592;entryDx=0;entryDy=0;entryPerimeter=0;exitX=0;exitY=0;exitDx=170;exitDy=160;exitPerimeter=0;dashed=1;" parent="1" source="Q_MenP5QwrPpLCp4PIsN-26" target="Q_MenP5QwrPpLCp4PIsN-2" edge="1">
          <mxGeometry relative="1" as="geometry" />
        </mxCell>
      </root>
    </mxGraphModel>
  </diagram>
</mxfile>
